<?xml version="1.0" encoding="UTF-8" standalone="no" ?>
<!DOCTYPE svg PUBLIC "-//W3C//DTD SVG 1.1//EN" "http://www.w3.org/Graphics/SVG/1.1/DTD/svg11.dtd">
<svg xmlns="http://www.w3.org/2000/svg" xmlns:xlink="http://www.w3.org/1999/xlink" version="1.1" width="137.99" height="119.59" xml:space="preserve">
<desc>Created with Fabric.js 1.6.0-rc.1</desc>
<defs></defs>
<g style="stroke: none; stroke-width: 1; stroke-dasharray: none; stroke-linecap: butt; stroke-linejoin: miter; stroke-miterlimit: 10; fill: none; fill-rule: nonzero; opacity: 1;" transform="translate(10 10) scale(0.23 0.23)" >
  <path d="M 496 80 H 16 C 7.168 80 0 87.168 0 96 v 320 c 0 8.832 7.168 16 16 16 h 480 c 8.832 0 16 -7.168 16 -16 V 96 C 512 87.168 504.832 80 496 80 z M 480 400 H 32 V 112 h 448 V 400 z" style="stroke: none; stroke-width: 1; stroke-dasharray: none; stroke-linecap: butt; stroke-linejoin: miter; stroke-miterlimit: 10; fill: #4b73c2; fill-rule: nonzero; opacity: 1;" transform=" matrix(1 0 0 1 0 0) " stroke-linecap="round" />
  <path d="M 344 272 h 96 c 4.416 0 8 -3.584 8 -8 V 152 c 0 -4.416 -3.584 -8 -8 -8 h -96 c -4.416 0 -8 3.584 -8 8 v 112 C 336 268.416 339.584 272 344 272 z M 352 160 h 80 v 96 h -80 V 160 z" style="stroke: none; stroke-width: 1; stroke-dasharray: none; stroke-linecap: butt; stroke-linejoin: miter; stroke-miterlimit: 10; fill: #4b73c2; fill-rule: nonzero; opacity: 1;" transform=" matrix(1 0 0 1 0 0) " stroke-linecap="round" />
  <path d="M 88 256 h 144 c 4.416 0 8 -3.584 8 -8 s -3.584 -8 -8 -8 H 88 c -4.416 0 -8 3.584 -8 8 S 83.584 256 88 256 z" style="stroke: none; stroke-width: 1; stroke-dasharray: none; stroke-linecap: butt; stroke-linejoin: miter; stroke-miterlimit: 10; fill: #4b73c2; fill-rule: nonzero; opacity: 1;" transform=" matrix(1 0 0 1 0 0) " stroke-linecap="round" />
  <path d="M 88 304 h 144 c 4.416 0 8 -3.584 8 -8 c 0 -4.416 -3.584 -8 -8 -8 H 88 c -4.416 0 -8 3.584 -8 8 C 80 300.416 83.584 304 88 304 z" style="stroke: none; stroke-width: 1; stroke-dasharray: none; stroke-linecap: butt; stroke-linejoin: miter; stroke-miterlimit: 10; fill: #4b73c2; fill-rule: nonzero; opacity: 1;" transform=" matrix(1 0 0 1 0 0) " stroke-linecap="round" />
  <path d="M 88 352 h 144 c 4.416 0 8 -3.584 8 -8 c 0 -4.416 -3.584 -8 -8 -8 H 88 c -4.416 0 -8 3.584 -8 8 C 80 348.416 83.584 352 88 352 z" style="stroke: none; stroke-width: 1; stroke-dasharray: none; stroke-linecap: butt; stroke-linejoin: miter; stroke-miterlimit: 10; fill: #4b73c2; fill-rule: nonzero; opacity: 1;" transform=" matrix(1 0 0 1 0 0) " stroke-linecap="round" />
</g>
</svg>